<!-- Generator: Adobe Illustrator 24.3.0, SVG Export Plug-In  -->
<svg version="1.1" xmlns="http://www.w3.org/2000/svg" xmlns:xlink="http://www.w3.org/1999/xlink" x="0px" y="0px"
	 width="263.21px" height="123px" viewBox="0 0 263.21 123" style="overflow:visible;enable-background:new 0 0 263.21 123;"
	 xml:space="preserve">
<style type="text/css">
	.st0{fill:#FFFFFF;}
	.st1{fill:#F1CD07;}
</style>
<defs>
</defs>
<g>
	<g>
		<rect width="263.21" height="123"/>
	</g>
	<g>
		<g>
			<path class="st0" d="M81.08,18.61h12.89v66.12H80.16L53.18,37.58H53v47.15H40.11V18.61h14.55L80.9,64.66h0.18V18.61z"/>
			<polygon class="st0" points="145.06,18.64 134.99,59.96 138.27,84.73 195.17,84.73 177.64,73.85 172.7,42.88 195.17,18.64 			"/>
			<g>
				<polygon class="st1" points="144.3,18.64 118.34,18.63 131.64,47.34 				"/>
				<polygon class="st0" points="102.11,18.62 90.73,18.61 90.73,84.73 124.45,84.73 124.45,59.78 				"/>
				<g>
					<polygon points="144.71,17.72 144.3,18.64 145.06,18.64 134.99,57.69 126.05,84.73 124.45,84.73 124.45,86.53 138.27,86.53 
						138.27,59.96 160.37,17.72 					"/>
				</g>
				<g>
					<polygon points="134.99,57.69 145.06,18.64 144.3,18.64 131.64,47.34 118.34,18.63 102.11,18.62 124.45,59.78 124.45,84.73 
						126.05,84.73 					"/>
				</g>
			</g>
			<path class="st0" d="M210.01,40.81c-1.05-3.75-3.06-10.82-13.88-10.82c-6.28,0-15.54,4.19-15.54,21.91
				c0,11.26,4.45,21.38,15.54,21.38c7.24,0,12.31-4.1,13.88-11.78h13.09c-2.62,13.62-11.52,23.13-27.23,23.13
				c-16.67,0-28.63-11.26-28.63-32.91c0-21.91,12.66-33.08,28.8-33.08c18.77,0,26.36,12.92,27.06,22.17H210.01z"/>
		</g>
		<g>
			<path class="st0" d="M47.11,105.41h-2.55l4.14-11.6h2.8l4.09,11.6h-2.63l-0.74-2.39h-4.28L47.11,105.41z M48.56,101.01h2.96
				l-1.44-4.59h-0.03L48.56,101.01z"/>
			<path class="st0" d="M73.29,93.81h5.87c3.09,0,3.65,2.28,3.65,3.28c0,1.28-0.65,2.38-1.79,2.76c0.95,0.42,1.47,0.78,1.47,2.94
				c0,1.7,0,2.12,0.52,2.31v0.31h-2.68c-0.16-0.55-0.26-1.15-0.26-2.34c0-1.58-0.1-2.2-1.89-2.2h-2.5v4.54h-2.38V93.81z
				 M78.51,98.91c1.26,0,1.87-0.44,1.87-1.58c0-0.61-0.27-1.52-1.7-1.52h-3.02v3.1H78.51z"/>
			<path class="st0" d="M105.72,105.41h-2.42v-9.55h-3.51v-2.05h9.44v2.05h-3.51V105.41z"/>
			<path class="st0" d="M149.82,100.21v5.2h-2.42v-11.6h2.42v4.39h4.52v-4.39h2.42v11.6h-2.42v-5.2H149.82z"/>
			<path class="st0" d="M180.36,93.5c1.53,0,5.57,0.66,5.57,6.11c0,5.45-4.04,6.11-5.57,6.11c-1.54,0-5.57-0.66-5.57-6.11
				C174.79,94.16,178.83,93.5,180.36,93.5z M180.36,103.66c1.31,0,3.15-0.81,3.15-4.06c0-3.25-1.84-4.06-3.15-4.06
				c-1.31,0-3.15,0.81-3.15,4.06C177.21,102.86,179.05,103.66,180.36,103.66z"/>
			<path class="st0" d="M206.46,105.41h-2.42v-11.6h5.3c2.25,0,3.6,1.44,3.6,3.72c0,1.05-0.58,3.7-3.7,3.7h-2.78V105.41z
				 M208.71,99.22c1.81,0,1.81-1.29,1.81-1.81c0-1.13-0.63-1.6-2.13-1.6h-1.92v3.41H208.71z"/>
		</g>
	</g>
</g>
</svg>
