<!-- Generator: Adobe Illustrator 24.3.0, SVG Export Plug-In  -->
<svg version="1.1" xmlns="http://www.w3.org/2000/svg" xmlns:xlink="http://www.w3.org/1999/xlink" x="0px" y="0px"
	 width="602.05px" height="221.34px" viewBox="0 0 602.05 221.34"
	 style="overflow:visible;enable-background:new 0 0 602.05 221.34;" xml:space="preserve">
<style type="text/css">
	.st0{fill:#3D5959;}
	.st1{fill:#DBD2D2;}
	.st2{fill:#171E26;}
	.st3{fill:#FFFFFF;}
	.st4{fill:#223837;}
</style>
<defs>
</defs>
<g>
	<g>
		<rect x="107.45" class="st0" width="21.12" height="133.92"/>
		
			<ellipse transform="matrix(0.9239 -0.3827 0.3827 0.9239 3.2934 46.2922)" class="st1" cx="118.01" cy="14.87" rx="5.84" ry="5.84"/>
		<path class="st2" d="M386.93,191.66c-0.4,0-0.8-0.11-1.16-0.35L116.84,16.66c-0.99-0.64-1.27-1.97-0.63-2.96
			c0.64-0.99,1.97-1.27,2.96-0.63L388.1,187.72c0.99,0.64,1.27,1.97,0.63,2.96C388.32,191.31,387.63,191.66,386.93,191.66z"/>
	</g>
	<g>
		<polygon class="st2" points="602.05,197.17 0,197.17 14.27,185.89 602.05,185.89 		"/>
		<rect x="0.13" y="197.17" class="st2" width="601.92" height="24.17"/>
	</g>
	
		<rect x="179.28" y="-34.51" transform="matrix(0.5447 -0.8387 0.8387 0.5447 -22.9081 209.4357)" class="st2" width="4.28" height="320.66"/>
	<g>
		<rect x="294.18" y="48.91" class="st2" width="205.07" height="77.35"/>
		<rect x="294.18" y="55.9" class="st3" width="205.07" height="2.14"/>
		<g>
			<path class="st3" d="M322.77,76.45h-5.29c-0.3-2.63-1.76-4.28-4.46-4.28c-2.06,0-3.64,0.98-3.64,3.08c0,2.18,1.39,3.26,5.51,4.24
				c5.7,1.31,8.25,3.94,8.25,8.1c0,4.88-4.46,7.65-9.57,7.65c-6.19,0-10.24-2.74-10.73-8.18h5.29c0.56,2.85,2.74,4.31,5.36,4.31
				c2.36,0,4.24-1.28,4.24-3.26c0-2.18-1.35-3.45-5.18-4.35c-5.29-1.28-8.63-3.11-8.63-7.88c0-4.76,4.31-7.58,9.27-7.58
				C319.4,68.31,322.21,71.84,322.77,76.45z"/>
			<path class="st3" d="M344.87,94.72h-5.18v-3.38l-1.54,2.55c-1.46,0.98-2.89,1.35-4.8,1.35c-4.13,0-6.6-2.33-7.05-5.06
				c-0.15-1.01-0.19-2.03-0.19-3.64V74.76h5.18v10.69c0,0.64,0.04,1.73,0.15,2.74c0.26,2.06,1.46,3.38,3.86,3.38
				c2.59,0,4.39-2.14,4.39-6.64V74.76h5.18V94.72z"/>
			<path class="st3" d="M370.38,84.37c0,7.2-4.43,10.88-9.57,10.88c-1.65,0-3.68-0.41-4.69-1.13l-1.31-2.06v2.66h-5.18V67.15h5.18
				V77.8l1.5-2.18c1.13-0.9,3.15-1.39,5.18-1.39C367.08,74.24,370.38,78.48,370.38,84.37z M365.01,84.71c0-4.09-1.95-6.83-5.03-6.83
				c-2.85,0-5.18,1.76-5.18,6.64v0.94c0,4.54,2.59,6.15,4.99,6.15C362.8,91.61,365.01,89.32,365.01,84.71z"/>
			<path class="st3" d="M396.26,94.72h-5.85l-3.38-15.19l-3.41,15.19h-5.89l-6.34-19.96h5.78l3.53,15.64l3.26-15.57h6.23l3.38,15.53
				l3.49-15.61h5.55L396.26,94.72z"/>
			<path class="st3" d="M416.15,91.8l-0.98,2.14c-1.39,0.94-3.08,1.31-4.95,1.31c-3.45,0-6.41-2.03-6.41-5.81
				c0-4.39,3.75-6.87,10.99-6.87h1.28v-0.41c0-0.6,0-1.2-0.07-1.88c-0.15-1.39-1.05-2.4-3.08-2.4c-2.06,0-3.19,1.2-3.34,3.38
				l-5.03,0.04c0.15-4.5,3.79-7.05,8.55-7.05c5.59,0,7.69,2.44,7.99,5.89c0.07,0.94,0.11,1.99,0.11,3.08v6.45
				c0,1.5,0.07,2.85,0.38,5.06h-5.06L416.15,91.8z M416.07,87.37v-1.61c-4.13-0.3-6.9,0.64-6.9,3.26c0,1.76,1.2,2.59,3.04,2.59
				C414.31,91.61,416.07,90.14,416.07,87.37z"/>
			<path class="st3" d="M436.89,95.47c-2.1,5.4-4.28,7.13-8.33,7.13c-0.94,0-1.58-0.04-2.33-0.15v-3.56
				c0.53,0.08,1.01,0.08,1.54,0.08c1.76,0,2.93-0.68,3.75-2.66l0.26-0.64l-8.14-20.9h5.78l4.95,16.02l4.88-16.02h5.66L436.89,95.47z
				"/>
		</g>
	</g>
	<rect x="40.86" y="123.85" class="st4" width="561.2" height="10.47"/>
	<rect x="40.86" y="38.44" class="st4" width="561.2" height="10.47"/>
	<g>
		<g>
			<rect x="34.88" y="24.74" class="st0" width="25.62" height="166.79"/>
			<rect x="36.11" y="32.85" class="st4" width="23" height="1.78"/>
		</g>
		<g>
			<rect x="258.57" y="24.74" class="st0" width="25.62" height="166.79"/>
			<rect x="260" y="33.31" class="st4" width="23.01" height="1.78"/>
		</g>
		<g>
			<rect x="509.81" y="24.74" class="st0" width="25.62" height="166.79"/>
			<rect x="511.12" y="33.31" class="st4" width="23.01" height="1.78"/>
		</g>
	</g>
</g>
</svg>
