<!-- Generator: Adobe Illustrator 24.3.0, SVG Export Plug-In  -->
<svg version="1.1" xmlns="http://www.w3.org/2000/svg" xmlns:xlink="http://www.w3.org/1999/xlink" x="0px" y="0px"
	 width="206.59px" height="206.59px" viewBox="0 0 206.59 206.59"
	 style="overflow:visible;enable-background:new 0 0 206.59 206.59;" xml:space="preserve">
<style type="text/css">
	.st0{fill:#FFFFFF;}
</style>
<defs>
</defs>
<g>
	<g>
		<path class="st0" d="M109.75,206.59c-4.3,0-8.61,0-12.91,0c-2.52-0.31-5.05-0.58-7.56-0.94c-20.56-2.95-38.72-11.18-54.25-24.97
			C17.1,164.74,5.9,144.93,1.61,121.29c-0.69-3.82-1.08-7.69-1.61-11.54c0-4.3,0-8.61,0-12.91c0.31-2.52,0.58-5.05,0.94-7.57
			C3.86,68.84,11.95,50.72,25.68,35.3C45.65,12.88,70.76,1.02,100.8,0.06c19.54-0.63,37.96,3.95,54.63,14.18
			c32.14,19.71,49.42,48.58,51.06,86.32c0.86,19.73-4.05,38.29-14.32,55.19c-16.35,26.91-40.07,43.42-71.08,49.26
			C117.34,205.71,113.53,206.07,109.75,206.59z M112.22,166.69c0-19.96,0-39.82,0-59.85c5.73,0,11.21,0,16.77,0
			c0.72-7.08,1.43-13.99,2.15-21.08c-3.38,0-6.46,0-9.54,0c-3.08,0-6.16,0-9.42,0c0-3.91,0-7.59,0-11.27c0-5.41,1.53-6.94,6.97-6.94
			c3.81,0,7.63,0,11.56,0c0-6.92,0-13.61,0-20.34c-0.3-0.08-0.55-0.21-0.8-0.21c-6.45-0.02-12.92-0.35-19.36,0.03
			C97.54,47.78,89.86,54.3,87.89,66.6c-0.87,5.46-0.47,11.12-0.64,16.69c-0.02,0.77,0,1.54,0,2.56c-4.11,0-7.9,0-11.67,0
			c0,7.15,0,14.04,0,21.12c3.92,0,7.72,0,11.72,0c0,20,0,39.8,0,59.72C95.65,166.69,103.82,166.69,112.22,166.69z"/>
	</g>
</g>
</svg>
