<!-- Generator: Adobe Illustrator 24.3.0, SVG Export Plug-In  -->
<svg version="1.1" xmlns="http://www.w3.org/2000/svg" xmlns:xlink="http://www.w3.org/1999/xlink" x="0px" y="0px"
	 width="207.58px" height="207.68px" viewBox="0 0 207.58 207.68"
	 style="overflow:visible;enable-background:new 0 0 207.58 207.68;" xml:space="preserve">
<style type="text/css">
	.st0{fill:#FFFFFF;}
</style>
<defs>
</defs>
<g>
	<g>
		<path class="st0" d="M97.3,0c4.32,0,8.65,0,12.97,0c0.52,0.11,1.04,0.29,1.56,0.33c16.16,1.21,31.29,5.85,45.08,14.33
			c26.79,16.5,43.3,40.22,49.08,71.24c0.7,3.77,1.07,7.6,1.59,11.4c0,4.32,0,8.65,0,12.97c-0.12,0.52-0.3,1.04-0.34,1.57
			c-1.22,15.95-5.98,30.77-14.01,44.6c-20.69,35.67-62.5,56.09-103.32,50.23c-27.73-3.98-50.48-16.94-67.8-38.95
			C4.98,145.93-2.1,120.95,0.53,93.39c2.11-22.1,10.69-41.59,25.44-58.2C42.08,17.04,62.14,5.74,86.1,1.57
			C89.81,0.92,93.57,0.52,97.3,0z M163.7,103.85c-0.37-9.85-0.32-19.8-1.22-29.67c-1.1-11.9-7-21-18.09-26.19
			c-4.83-2.26-10.02-3.28-15.33-3.35c-14.05-0.2-28.1-0.37-42.16-0.32c-5.11,0.02-10.3,0.3-15.33,1.17
			c-12.13,2.12-20.73,8.92-24.7,20.75c-1.29,3.85-2.07,8.03-2.18,12.09c-0.36,14.11-0.4,28.24-0.41,42.36
			c0,4.31,0.31,8.64,0.75,12.94c1.53,15.08,11.86,26.34,26.86,28.49c7.45,1.07,15.08,1.2,22.62,1.19
			c12.96-0.01,25.96,0.07,38.88-0.84c16.09-1.13,27.77-13.06,29.12-29.18C163.33,123.54,163.33,113.73,163.7,103.85z"/>
		<path class="st0" d="M54.73,103.79c0.26-9.15,0.3-18.14,0.84-27.1c0.75-12.47,8.64-20.72,21.1-21.05
			c18.01-0.48,36.06-0.49,54.07-0.01c12.74,0.34,20.87,8.49,21.21,21.28c0.48,18.08,0.42,36.19-0.04,54.27
			c-0.23,9.2-4.83,16.33-14.01,19.34c-3.53,1.16-7.41,1.73-11.13,1.77c-15.33,0.19-30.67,0.22-45.99-0.02
			c-4.05-0.06-8.28-0.77-12.07-2.14c-8.67-3.14-12.51-10.23-13.09-18.98C55,122.01,54.99,112.81,54.73,103.79z M134.37,103.83
			c0.03-16.88-13.53-30.51-30.45-30.61c-16.93-0.1-30.69,13.58-30.72,30.55c-0.03,16.87,13.54,30.51,30.45,30.62
			C120.58,134.49,134.34,120.8,134.37,103.83z M142.73,71.9c-0.03-3.91-3.19-7.03-7.11-7.04c-4.01-0.01-7.17,3.18-7.14,7.2
			c0.03,4.01,3.25,7.11,7.3,7.03C139.68,79.02,142.76,75.83,142.73,71.9z"/>
		<path class="st0" d="M103.85,123.66c-10.92,0.03-19.88-8.84-19.93-19.75c-0.05-11.02,8.89-19.99,19.9-19.98
			c10.93,0.02,19.82,8.92,19.82,19.85C123.66,114.71,114.77,123.63,103.85,123.66z"/>
	</g>
</g>
</svg>
