<!-- Generator: Adobe Illustrator 24.3.0, SVG Export Plug-In  -->
<svg version="1.1" xmlns="http://www.w3.org/2000/svg" xmlns:xlink="http://www.w3.org/1999/xlink" x="0px" y="0px"
	 width="208.55px" height="208.6px" viewBox="0 0 208.55 208.6" style="overflow:visible;enable-background:new 0 0 208.55 208.6;"
	 xml:space="preserve">
<style type="text/css">
	.st0{fill:#FFFFFF;}
</style>
<defs>
</defs>
<g>
	<g>
		<path class="st0" d="M97.73,0c4.35,0,8.69,0,13.04,0c0.52,0.11,1.04,0.29,1.57,0.33c16.24,1.21,31.44,5.88,45.29,14.4
			c26.92,16.58,43.51,40.42,49.31,71.59c0.71,3.79,1.08,7.63,1.6,11.45c0,4.35,0,8.69,0,13.04c-0.3,2.48-0.55,4.97-0.92,7.45
			c-4.12,28.01-17.16,50.98-39.49,68.35c-22.91,17.83-49.08,24.74-77.81,21c-24.57-3.2-45.51-14.05-62.3-32.29
			C5.85,151.23-3.11,122.65,0.95,90.2c2.6-20.82,11.17-39.16,25.11-54.85C42.26,17.13,62.4,5.77,86.48,1.57
			C90.21,0.92,93.98,0.52,97.73,0z M106.98,44.85c0,1.06,0,1.93,0,2.8c-0.01,25.8-0.02,51.59-0.04,77.39c0,1.15-0.02,2.31-0.13,3.46
			c-0.84,9.05-8.22,15.94-17.23,16.09c-8.96,0.15-16.64-6.51-17.84-15.49c-1.17-8.78,4.73-17.32,13.66-19.15
			c2.96-0.61,6.16-0.1,9.3-0.1c0-6.32,0-12.79,0-19.85c-4.28,0.28-8.45,0.16-12.47,0.86c-20.35,3.54-33.94,23.78-29.53,43.67
			c4.58,20.65,25.31,33.46,45.59,28.2c17.09-4.44,28.25-18.83,28.24-36.51c-0.01-13.3-0.09-26.61-0.14-39.91c0-0.72,0-1.44,0-2.58
			c9.17,6.62,18.95,10.19,29.98,10.12c0-6.53,0-12.86,0-19.19c-14.42-0.28-29.36-11.17-30.22-29.81
			C119.87,44.85,113.58,44.85,106.98,44.85z"/>
	</g>
</g>
</svg>
